<svg xmlns="http://www.w3.org/2000/svg" viewBox="0 0 16.68 16.641" fill="currentColor"><path d="M16.172.508A1.528 1.528 0 0 0 15 0H1.68A1.65 1.65 0 0 0 .469.508 1.54 1.54 0 0 0 0 1.641V15c0 .442.156.82.469 1.133a1.65 1.65 0 0 0 1.211.508H15c.469 0 .859-.169 1.172-.508A1.49 1.49 0 0 0 16.68 15V1.641c0-.443-.17-.821-.508-1.133zM5.977 5.977A3.19 3.19 0 0 1 8.32 5c.938 0 1.732.325 2.383.977.65.651.977 1.432.977 2.344 0 .911-.326 1.692-.977 2.344s-1.445.977-2.383.977c-.912 0-1.693-.325-2.344-.977S5 9.231 5 8.32c0-.911.326-1.693.977-2.343zM15 14.57c0 .286-.143.43-.43.43H2.07c-.26 0-.391-.144-.391-.43V7.5h1.719a4.18 4.18 0 0 0-.078.82c0 1.38.482 2.565 1.445 3.555.99.964 2.174 1.445 3.555 1.445s2.553-.481 3.516-1.445c.99-.989 1.484-2.175 1.484-3.555 0-.234-.025-.508-.078-.82H15v7.07zm0-10.82c0 .26-.143.391-.43.391h-1.64c-.287 0-.43-.13-.43-.391V2.07c0-.287.143-.43.43-.43h1.641c.287 0 .43.143.43.43v1.68z"/></svg>